<svg xmlns="http://www.w3.org/2000/svg" viewBox="0 0 64 64">
  <defs>
    <linearGradient id="nixplay-a" x1="10" x2="54" y1="54" y2="10" gradientUnits="userSpaceOnUse">
      <stop stop-color="#45b4ff"/>
      <stop offset=".48" stop-color="#6d65ff"/>
      <stop offset="1" stop-color="#b33cff"/>
    </linearGradient>
    <linearGradient id="nixplay-b" x1="20" x2="44" y1="47" y2="17" gradientUnits="userSpaceOnUse">
      <stop stop-color="#151923"/>
      <stop offset="1" stop-color="#05060b"/>
    </linearGradient>
  </defs>
  <rect width="60" height="60" x="2" y="2" fill="url(#nixplay-b)" rx="14"/>
  <rect width="59" height="59" x="2.5" y="2.5" fill="none" stroke="#6d7488" stroke-opacity=".7" rx="13.5"/>
  <path fill="url(#nixplay-a)" d="M17 17.8c0-2.1 1.7-3.8 3.8-3.8h4.6c1.2 0 2.4.4 3.4 1.1l14.4 10.1V17.8c0-2.1 1.7-3.8 3.8-3.8h1.2c2.1 0 3.8 1.7 3.8 3.8v28.4c0 2.1-1.7 3.8-3.8 3.8h-4.6c-1.2 0-2.4-.4-3.4-1.1L25.8 38.8v7.4c0 2.1-1.7 3.8-3.8 3.8h-1.2c-2.1 0-3.8-1.7-3.8-3.8V17.8Z"/>
  <path fill="#05060b" d="M28.4 24.4c0-1.3 1.4-2.1 2.5-1.4l12.9 7.6c1.1.6 1.1 2.2 0 2.8L30.9 41c-1.1.7-2.5-.1-2.5-1.4V24.4Z" opacity=".92"/>
</svg>
